<svg xmlns="http://www.w3.org/2000/svg" width="56.853" height="67" viewBox="0 0 56.853 67"><defs><style>.a{fill:none;}.b{fill:#f6d361;}</style></defs><path class="a" d="M0,0H56.853V67H0Z"/><path class="b" d="M46.746,22.333H43.693v-6.1a15.267,15.267,0,0,0-30.533,0v6.1H10.107A6.119,6.119,0,0,0,4,28.429V58.9A6.119,6.119,0,0,0,10.107,65h36.64a6.119,6.119,0,0,0,6.107-6.1V28.429A6.119,6.119,0,0,0,46.746,22.333ZM28.426,49.762a6.1,6.1,0,1,1,6.107-6.1A6.119,6.119,0,0,1,28.426,49.762Zm9.465-27.429H18.961v-6.1a9.465,9.465,0,0,1,18.93,0Z"/></svg>